<svg xmlns="http://www.w3.org/2000/svg" viewBox="0 0 69.59 15.54">
    <path  d="M4.89,2.93v10H3.65L1.24,6.41H1.19c0,.18,0,.37.05.58s0,.44.05.72,0,.6,0,1,0,.81,0,1.31v2.95H0v-10H1.23l2.43,6.7h0c0-.16,0-.33,0-.53s0-.41-.05-.65,0-.52,0-.83,0-.65,0-1V0H68.37V1H4.92Z"/>
    <path  d="M8.54,13A3.12,3.12,0,0,1,8,13a1.45,1.45,0,0,1-.52-.17A1.74,1.74,0,0,1,7,12.44a2.34,2.34,0,0,1-.38-.63,4.63,4.63,0,0,1-.26-1A9,9,0,0,1,6.3,9.47V8.21a7.52,7.52,0,0,1,.1-1.35,4.08,4.08,0,0,1,.26-.94,2,2,0,0,1,.39-.6A1.69,1.69,0,0,1,7.52,5,2,2,0,0,1,8,4.81a4.73,4.73,0,0,1,.52,0,4.38,4.38,0,0,1,.5,0,1.52,1.52,0,0,1,.5.15A1.6,1.6,0,0,1,10,5.3a2.14,2.14,0,0,1,.38.6,4.55,4.55,0,0,1,.27.95,8.83,8.83,0,0,1,.09,1.36V9.47a7.64,7.64,0,0,1-.1,1.36,3.67,3.67,0,0,1-.27,1,2.12,2.12,0,0,1-.39.63,1.64,1.64,0,0,1-.47.38A1.58,1.58,0,0,1,9,13,2.77,2.77,0,0,1,8.54,13Zm0-1.14a.53.53,0,0,0,.34-.1.67.67,0,0,0,.22-.34,2.55,2.55,0,0,0,.13-.62c0-.25,0-.57,0-1v-2c0-.38,0-.7,0-1a2.55,2.55,0,0,0-.13-.62A.71.71,0,0,0,8.89,6a.53.53,0,0,0-.34-.1A.58.58,0,0,0,8.2,6,.8.8,0,0,0,8,6.31a2.55,2.55,0,0,0-.13.62,8.73,8.73,0,0,0,0,1v2a8.42,8.42,0,0,0,0,1,2.55,2.55,0,0,0,.13.62.76.76,0,0,0,.24.34A.58.58,0,0,0,8.55,11.88Z"/>
    <path  d="M12.08,4.87h1.14l.13.86h0a3,3,0,0,1,.38-.46A2.11,2.11,0,0,1,14.15,5a1.46,1.46,0,0,1,.44-.16A2.3,2.3,0,0,1,15,4.77a1.3,1.3,0,0,1,1.09.5,2.36,2.36,0,0,1,.39,1.48v6.19H15V6.81a1.2,1.2,0,0,0-.17-.74.57.57,0,0,0-.48-.21A.82.82,0,0,0,14,6a1.4,1.4,0,0,0-.39.41v6.53H12.08Z"/>
    <path d="M20.09,13a3.15,3.15,0,0,1-.53,0,1.34,1.34,0,0,1-.51-.17,1.48,1.48,0,0,1-.47-.37,2.12,2.12,0,0,1-.39-.63,4.12,4.12,0,0,1-.25-1,7.76,7.76,0,0,1-.1-1.37V8.21a7.52,7.52,0,0,1,.1-1.35,4.08,4.08,0,0,1,.26-.94,2,2,0,0,1,.39-.6A1.85,1.85,0,0,1,19.06,5a2,2,0,0,1,.52-.16,3.21,3.21,0,0,1,1,0,1.52,1.52,0,0,1,.5.15,1.48,1.48,0,0,1,.47.34,2.15,2.15,0,0,1,.39.6,4,4,0,0,1,.26.95,8.71,8.71,0,0,1,.1,1.36V9.47a8.71,8.71,0,0,1-.1,1.36,4.65,4.65,0,0,1-.27,1,2.36,2.36,0,0,1-.4.63,1.61,1.61,0,0,1-.46.38,1.68,1.68,0,0,1-.5.18A2.85,2.85,0,0,1,20.09,13Zm0-1.14a.52.52,0,0,0,.33-.1.68.68,0,0,0,.23-.34,3.24,3.24,0,0,0,.12-.62,8.42,8.42,0,0,0,0-1v-2a8.73,8.73,0,0,0,0-1,3.24,3.24,0,0,0-.12-.62A.72.72,0,0,0,20.43,6a.52.52,0,0,0-.33-.1.61.61,0,0,0-.36.1.79.79,0,0,0-.23.35,2.11,2.11,0,0,0-.14.62,8.73,8.73,0,0,0,0,1v2a8.42,8.42,0,0,0,0,1,2.11,2.11,0,0,0,.14.62.75.75,0,0,0,.23.34A.61.61,0,0,0,20.1,11.88Z"/>
    <path  d="M23.64,2.28h1.48V12.94H23.64Z"/>
    <path  d="M28.62,13a2.12,2.12,0,0,1-.93-.19,1.74,1.74,0,0,1-.67-.6,3.16,3.16,0,0,1-.42-1.05,7.67,7.67,0,0,1-.14-1.55V8.11a6.32,6.32,0,0,1,.12-1.32,3.84,3.84,0,0,1,.29-.92,2.14,2.14,0,0,1,.43-.59A2.16,2.16,0,0,1,27.8,5a2,2,0,0,1,.52-.14,2.63,2.63,0,0,1,.47,0,2.42,2.42,0,0,1,.76.12,1.63,1.63,0,0,1,.66.41,2.24,2.24,0,0,1,.44.78,3.79,3.79,0,0,1,.17,1.21c0,.17,0,.33,0,.5s0,.33,0,.5l-.06.47c0,.15-.06.29-.08.42H28V10a7.52,7.52,0,0,0,0,.89,2,2,0,0,0,.14.58.62.62,0,0,0,.26.31.77.77,0,0,0,.42.1.75.75,0,0,0,.26-.05.53.53,0,0,0,.23-.19,1.08,1.08,0,0,0,.16-.34,2.58,2.58,0,0,0,.05-.53v-.25h1.24v.31a2.21,2.21,0,0,1-.55,1.67A2.18,2.18,0,0,1,28.62,13Zm.82-4.84s0-.1,0-.17,0-.15,0-.22V7.36a2.51,2.51,0,0,0-.19-1.15.6.6,0,0,0-.55-.35.59.59,0,0,0-.58.39,1.9,1.9,0,0,0-.14.57,5.36,5.36,0,0,0-.05.87v.49Z"/>
    <path d="M31.76,11.25a2.1,2.1,0,0,1,0-.51,2.91,2.91,0,0,1,.09-.39H33a5.07,5.07,0,0,0,0,.73,1.46,1.46,0,0,0,.14.47.67.67,0,0,0,.27.26,1,1,0,0,0,.41.07.57.57,0,0,0,.48-.19.62.62,0,0,0,.16-.43.69.69,0,0,0,0-.25.89.89,0,0,0-.1-.23,1.48,1.48,0,0,0-.16-.25l-.21-.27L32.86,9l-.41-.54a4.65,4.65,0,0,1-.34-.56,3.51,3.51,0,0,1-.24-.61,2.41,2.41,0,0,1-.09-.67,1.86,1.86,0,0,1,.16-.81,1.54,1.54,0,0,1,.43-.57A1.61,1.61,0,0,1,33,4.89a2.37,2.37,0,0,1,.76-.12,2.79,2.79,0,0,1,.79.11,1.73,1.73,0,0,1,.6.32,1.35,1.35,0,0,1,.39.52,1.83,1.83,0,0,1,.13.73,2.36,2.36,0,0,1-.05.54c0,.18-.06.33-.09.46h-1a6.81,6.81,0,0,0,0-.7,1.63,1.63,0,0,0-.1-.5A.68.68,0,0,0,34.14,6a.57.57,0,0,0-.36-.1.73.73,0,0,0-.32.06.49.49,0,0,0-.21.16.65.65,0,0,0-.11.22,1.15,1.15,0,0,0,0,.26,1.06,1.06,0,0,0,.13.52,4.12,4.12,0,0,0,.36.52L34.78,9c.09.1.19.23.3.38a4.78,4.78,0,0,1,.32.5,3.51,3.51,0,0,1,.26.59,2.2,2.2,0,0,1,.11.68,2.11,2.11,0,0,1-.14.77,1.55,1.55,0,0,1-.4.6,1.8,1.8,0,0,1-.65.38,2.57,2.57,0,0,1-.87.13,3.1,3.1,0,0,1-.76-.09,1.56,1.56,0,0,1-.62-.3,1.34,1.34,0,0,1-.42-.54A2.1,2.1,0,0,1,31.76,11.25Z"/>
    <path  d="M38.14,13.49a1.13,1.13,0,0,0,.19.74.78.78,0,0,0,.6.21.89.89,0,0,0,.32,0,.51.51,0,0,0,.26-.18,1,1,0,0,0,.19-.37,2.35,2.35,0,0,0,.07-.6V12a1.87,1.87,0,0,1-.52.44,1.49,1.49,0,0,1-.77.19l-.32,0a1.45,1.45,0,0,1-.37-.12,1.38,1.38,0,0,1-.38-.28,1.74,1.74,0,0,1-.34-.52,3.84,3.84,0,0,1-.24-.8,6.55,6.55,0,0,1-.09-1.17V7.56a6,6,0,0,1,.09-1.12,3.7,3.7,0,0,1,.24-.77,1.57,1.57,0,0,1,.34-.49,1.76,1.76,0,0,1,.39-.26,1.39,1.39,0,0,1,.38-.12l.33,0a1.62,1.62,0,0,1,.52.08,1.2,1.2,0,0,1,.39.2,1.29,1.29,0,0,1,.29.28,2.8,2.8,0,0,1,.2.32l.13-.8H41.2v7.75a5.54,5.54,0,0,1-.13,1.21,2.55,2.55,0,0,1-.41.93,1.75,1.75,0,0,1-.7.59,2.25,2.25,0,0,1-1,.2,3.54,3.54,0,0,1-.75-.07,1.56,1.56,0,0,1-.62-.25,1.28,1.28,0,0,1-.41-.48A1.67,1.67,0,0,1,37,14a1.83,1.83,0,0,1,0-.21,1.38,1.38,0,0,1,.06-.26Zm.84-2a.67.67,0,0,0,.26,0,1.07,1.07,0,0,0,.21-.13,1.46,1.46,0,0,0,.16-.19,1.51,1.51,0,0,0,.11-.22V6.45a1.25,1.25,0,0,0-.3-.42A.64.64,0,0,0,39,5.86a.73.73,0,0,0-.3.06.55.55,0,0,0-.24.22,1.49,1.49,0,0,0-.15.44,3.73,3.73,0,0,0-.06.74V10a3.73,3.73,0,0,0,.06.74,1.68,1.68,0,0,0,.15.45.58.58,0,0,0,.24.23A.73.73,0,0,0,39,11.45Z"/>
    <path  d="M43.86,13a1.4,1.4,0,0,1-.66-.15,1.37,1.37,0,0,1-.49-.4,1.88,1.88,0,0,1-.3-.62,2.65,2.65,0,0,1-.11-.77,3,3,0,0,1,.13-.88,2.21,2.21,0,0,1,.36-.7,2.88,2.88,0,0,1,.59-.56,6,6,0,0,1,.81-.49l.5-.22.5-.2V7c0-.16,0-.31,0-.44a.9.9,0,0,0-.09-.35.52.52,0,0,0-.2-.24.75.75,0,0,0-.37-.08.8.8,0,0,0-.3.06.64.64,0,0,0-.27.2,1.16,1.16,0,0,0-.18.37,2.36,2.36,0,0,0-.07.58v.35H42.56c0-.15-.06-.29-.08-.42s0-.25,0-.37a2,2,0,0,1,.15-.8,1.6,1.6,0,0,1,.44-.58,1.75,1.75,0,0,1,.66-.36,2.86,2.86,0,0,1,.85-.12,3.12,3.12,0,0,1,1,.14,1.42,1.42,0,0,1,.64.39,1.47,1.47,0,0,1,.33.66,3.76,3.76,0,0,1,.1.94v6h-1.1l-.11-.7a1.77,1.77,0,0,1-.64.57A2,2,0,0,1,43.86,13Zm.66-1.14a.74.74,0,0,0,.37-.1,1.14,1.14,0,0,0,.3-.23V9l-.27.11-.31.17a2.34,2.34,0,0,0-.31.24,1.67,1.67,0,0,0-.47.77,1.93,1.93,0,0,0-.07.55,1.37,1.37,0,0,0,.18.74A.63.63,0,0,0,44.52,11.88Z"/>
    <path  d="M47.53,12.2,49.79,6H47.72V4.87h3.66v.74l-2.27,6.2h2.28v1.13H47.53Z"/>
    <path  d="M52.05,11.89A1.31,1.31,0,0,1,52.3,11a.86.86,0,0,1,.67-.27.84.84,0,0,1,.68.28,1.38,1.38,0,0,1,.24.88,1.28,1.28,0,0,1-.24.83A.85.85,0,0,1,53,13a.83.83,0,0,1-.66-.29A1.28,1.28,0,0,1,52.05,11.89Z"/>
    <path  d="M55.22,4.87h1.14l.14.86h0a2.48,2.48,0,0,1,.37-.46A2.11,2.11,0,0,1,57.29,5a1.52,1.52,0,0,1,.45-.16,2.28,2.28,0,0,1,.44-.05,1.31,1.31,0,0,1,1.1.5,2.42,2.42,0,0,1,.38,1.48v6.19H58.18V6.81A1.2,1.2,0,0,0,58,6.07a.57.57,0,0,0-.48-.21.84.84,0,0,0-.44.14,1.4,1.4,0,0,0-.39.41v6.53H55.22Z"/>
    <path  d="M63.14,13a2.07,2.07,0,0,1-.92-.19,1.7,1.7,0,0,1-.68-.6,3.38,3.38,0,0,1-.42-1.05A7.67,7.67,0,0,1,61,9.63V8.11a6.32,6.32,0,0,1,.12-1.32,3.43,3.43,0,0,1,.3-.92,1.8,1.8,0,0,1,.43-.59,2,2,0,0,1,.5-.33,1.94,1.94,0,0,1,.51-.14,2.71,2.71,0,0,1,.47,0,2.48,2.48,0,0,1,.77.12,1.67,1.67,0,0,1,.65.41,2.11,2.11,0,0,1,.45.78,3.81,3.81,0,0,1,.16,1.21c0,.17,0,.33,0,.5s0,.33,0,.5,0,.32-.06.47,0,.29-.08.42H62.47V10c0,.35,0,.65,0,.89a2.35,2.35,0,0,0,.14.58.64.64,0,0,0,.27.31.76.76,0,0,0,.41.1.86.86,0,0,0,.27-.05.56.56,0,0,0,.22-.19A.9.9,0,0,0,64,11.3a2,2,0,0,0,.06-.53v-.25h1.23v.31a2.25,2.25,0,0,1-.54,1.67A2.22,2.22,0,0,1,63.14,13ZM64,8.18s0-.1,0-.17a1.62,1.62,0,0,0,0-.22V7.36a2.68,2.68,0,0,0-.18-1.15.61.61,0,0,0-.56-.35A.64.64,0,0,0,62.9,6a.62.62,0,0,0-.24.3,2.26,2.26,0,0,0-.14.57,6.81,6.81,0,0,0-.05.87v.49Z"/>
    <path  d="M66.77,5.92h-.63v-1h.76l.3-2.09h1V4.87h1.29v1H68.25v5.14a1.61,1.61,0,0,0,0,.42.55.55,0,0,0,.14.25.41.41,0,0,0,.2.12,1,1,0,0,0,.25,0,1.46,1.46,0,0,0,.38-.05,1.87,1.87,0,0,0,.32-.15v.82a1.14,1.14,0,0,1-.28.26,1.46,1.46,0,0,1-.3.16,2,2,0,0,1-.33.09l-.32,0a2.41,2.41,0,0,1-.6-.08,1.16,1.16,0,0,1-.51-.32A1.68,1.68,0,0,1,66.9,12a3.48,3.48,0,0,1-.13-1.06Z"/>
</svg>
